<svg width="247" height="216" viewBox="0 0 247 216" fill="none" xmlns="http://www.w3.org/2000/svg">
<path fill-rule="evenodd" clip-rule="evenodd" d="M84.609 38.741C74.339 60.049 63.944 81.757 61.508 86.982C57.336 95.932 38.146 135.791 20.826 171.482C16.556 180.282 10.123 193.557 6.531 200.982L0 214.482L27.855 214.748L55.711 215.013L63.996 210.676C68.553 208.291 77.456 203.394 83.781 199.794C90.106 196.195 100.456 190.427 106.781 186.977C113.106 183.527 118.402 180.608 118.549 180.491C118.697 180.374 117.362 176.949 115.582 172.88C112.628 166.127 112.35 164.61 112.385 155.482C112.418 147.013 112.84 144.429 115.142 138.605C118.416 130.32 121.921 125.124 128.693 118.52C136.474 110.93 135.288 109.67 125.983 115.64C122.847 117.652 117.581 120.725 114.281 122.468C110.981 124.211 103.5 128.608 97.656 132.239L87.03 138.841L92.511 126.162C95.525 119.188 98.597 111.571 99.337 109.236C100.077 106.901 104.256 96.551 108.622 86.236C112.989 75.921 117.817 64.196 119.351 60.18C120.886 56.164 122.398 52.728 122.711 52.546C123.025 52.363 125.912 57.899 129.127 64.848C139.526 87.32 146.263 101.15 147.052 101.644C147.477 101.909 152.427 99.13 158.052 95.469C163.678 91.807 171.286 86.937 174.959 84.647L181.638 80.482L166.76 49.982C158.578 33.207 149.687 15.207 147.004 9.982L142.125 0.481998L122.703 0.240997L103.281 0L84.609 38.741ZM180.781 87.797C179.406 88.654 172.206 93.608 164.781 98.805C147.466 110.924 137.445 120.59 134.761 127.764C130.889 138.115 133.002 149.275 140.187 156.415C145.206 161.402 174.466 178.855 202.281 193.452C207.781 196.338 216.17 200.948 220.922 203.696C235.489 212.117 246.781 216.831 246.781 214.49C246.781 213.967 216.843 151.944 211.299 140.982C203.719 125.994 186.986 91.319 186.371 89.324C185.468 86.4 183.766 85.935 180.781 87.797Z" fill="white"/>
</svg>
